<?xml version="1.0" encoding="UTF-8" standalone="no"?>
<!DOCTYPE svg PUBLIC "-//W3C//DTD SVG 1.1//EN"
 "http://www.w3.org/Graphics/SVG/1.1/DTD/svg11.dtd">
<!-- Generated by graphviz version 14.1.4 (20260321.0153)
 -->
<!-- Title: paradigms Pages: 1 -->
<svg width="506pt" height="566pt"
 viewBox="0.00 0.00 506.00 566.00" xmlns="http://www.w3.org/2000/svg" xmlns:xlink="http://www.w3.org/1999/xlink">
<g id="graph0" class="graph" transform="scale(1 1) rotate(0) translate(4 562)">
<title>paradigms</title>
<polygon fill="white" stroke="none" points="-4,4 -4,-562 501.87,-562 501.87,4 -4,4"/>
<g id="clust1" class="cluster">
<title>cluster_direct</title>
<path fill="white" stroke="#cccccc" stroke-width="0.6" d="M20,-8C20,-8 353.59,-8 353.59,-8 359.59,-8 365.59,-14 365.59,-20 365.59,-20 365.59,-66 365.59,-66 365.59,-72 359.59,-78 353.59,-78 353.59,-78 20,-78 20,-78 14,-78 8,-72 8,-66 8,-66 8,-20 8,-20 8,-14 14,-8 20,-8"/>
<text xml:space="preserve" text-anchor="middle" x="67.38" y="-61.65" font-family="Helvetica,sans-Serif" font-weight="bold" font-size="13.00">1. Direct answer</text>
</g>
<g id="clust2" class="cluster">
<title>cluster_cot</title>
<path fill="white" stroke="#cccccc" stroke-width="0.6" d="M20,-86C20,-86 353.59,-86 353.59,-86 359.59,-86 365.59,-92 365.59,-98 365.59,-98 365.59,-148 365.59,-148 365.59,-154 359.59,-160 353.59,-160 353.59,-160 20,-160 20,-160 14,-160 8,-154 8,-148 8,-148 8,-98 8,-98 8,-92 14,-86 20,-86"/>
<text xml:space="preserve" text-anchor="middle" x="93.25" y="-143.65" font-family="Helvetica,sans-Serif" font-weight="bold" font-size="13.00">2. Reasoning only (CoT)</text>
</g>
<g id="clust3" class="cluster">
<title>cluster_act</title>
<path fill="white" stroke="#cccccc" stroke-width="0.6" d="M20,-168C20,-168 477.87,-168 477.87,-168 483.87,-168 489.87,-174 489.87,-180 489.87,-180 489.87,-341 489.87,-341 489.87,-347 483.87,-353 477.87,-353 477.87,-353 20,-353 20,-353 14,-353 8,-347 8,-341 8,-341 8,-180 8,-180 8,-174 14,-168 20,-168"/>
<text xml:space="preserve" text-anchor="middle" x="59.5" y="-336.65" font-family="Helvetica,sans-Serif" font-weight="bold" font-size="13.00">3. Acting only</text>
</g>
<g id="clust4" class="cluster">
<title>cluster_react</title>
<path fill="white" stroke="#cccccc" stroke-width="0.6" d="M20,-361C20,-361 477.87,-361 477.87,-361 483.87,-361 489.87,-367 489.87,-373 489.87,-373 489.87,-538 489.87,-538 489.87,-544 483.87,-550 477.87,-550 477.87,-550 20,-550 20,-550 14,-550 8,-544 8,-538 8,-538 8,-373 8,-373 8,-367 14,-361 20,-361"/>
<text xml:space="preserve" text-anchor="middle" x="88.75" y="-533.65" font-family="Helvetica,sans-Serif" font-weight="bold" font-size="13.00">4. ReAct (reason + act)</text>
</g>
<!-- d_q -->
<g id="node1" class="node">
<title>d_q</title>
<path fill="#f3f3f3" stroke="#bbbbbb" d="M68.43,-46.4C68.43,-46.4 27.6,-46.4 27.6,-46.4 22.8,-46.4 18,-41.6 18,-36.8 18,-36.8 18,-27.2 18,-27.2 18,-22.4 22.8,-17.6 27.6,-17.6 27.6,-17.6 68.43,-17.6 68.43,-17.6 73.23,-17.6 78.03,-22.4 78.03,-27.2 78.03,-27.2 78.03,-36.8 78.03,-36.8 78.03,-41.6 73.23,-46.4 68.43,-46.4"/>
<text xml:space="preserve" text-anchor="middle" x="48.01" y="-27.55" font-family="Helvetica,sans-Serif" font-size="11.00">Question</text>
</g>
<!-- d_l -->
<g id="node2" class="node">
<title>d_l</title>
<path fill="#fff5f3" stroke="#c44536" d="M190.44,-46.4C190.44,-46.4 155.64,-46.4 155.64,-46.4 150.84,-46.4 146.04,-41.6 146.04,-36.8 146.04,-36.8 146.04,-27.2 146.04,-27.2 146.04,-22.4 150.84,-17.6 155.64,-17.6 155.64,-17.6 190.44,-17.6 190.44,-17.6 195.24,-17.6 200.04,-22.4 200.04,-27.2 200.04,-27.2 200.04,-36.8 200.04,-36.8 200.04,-41.6 195.24,-46.4 190.44,-46.4"/>
<text xml:space="preserve" text-anchor="middle" x="173.04" y="-27.55" font-family="Helvetica,sans-Serif" font-size="11.00">LLM</text>
</g>
<!-- d_q&#45;&gt;d_l -->
<g id="edge1" class="edge">
<title>d_q&#45;&gt;d_l</title>
<path fill="none" stroke="#555555" stroke-width="1.2" d="M78.48,-32C96.08,-32 118.53,-32 137.02,-32"/>
<polygon fill="#555555" stroke="#555555" stroke-width="1.2" points="136.93,-34.45 143.93,-32 136.93,-29.55 136.93,-34.45"/>
</g>
<!-- d_a -->
<g id="node3" class="node">
<title>d_a</title>
<path fill="#e6f7e6" stroke="#4a8a4a" d="M345.99,-46.4C345.99,-46.4 311.16,-46.4 311.16,-46.4 306.36,-46.4 301.56,-41.6 301.56,-36.8 301.56,-36.8 301.56,-27.2 301.56,-27.2 301.56,-22.4 306.36,-17.6 311.16,-17.6 311.16,-17.6 345.99,-17.6 345.99,-17.6 350.79,-17.6 355.59,-22.4 355.59,-27.2 355.59,-27.2 355.59,-36.8 355.59,-36.8 355.59,-41.6 350.79,-46.4 345.99,-46.4"/>
<text xml:space="preserve" text-anchor="middle" x="328.57" y="-27.55" font-family="Helvetica,sans-Serif" font-size="11.00">Answer</text>
</g>
<!-- d_l&#45;&gt;d_a -->
<g id="edge2" class="edge">
<title>d_l&#45;&gt;d_a</title>
<path fill="none" stroke="#555555" stroke-width="1.2" d="M200.44,-32C225.89,-32 264.57,-32 292.58,-32"/>
<polygon fill="#555555" stroke="#555555" stroke-width="1.2" points="292.45,-34.45 299.45,-32 292.45,-29.55 292.45,-34.45"/>
</g>
<!-- c_q -->
<g id="node4" class="node">
<title>c_q</title>
<path fill="#f3f3f3" stroke="#bbbbbb" d="M68.43,-126.4C68.43,-126.4 27.6,-126.4 27.6,-126.4 22.8,-126.4 18,-121.6 18,-116.8 18,-116.8 18,-107.2 18,-107.2 18,-102.4 22.8,-97.6 27.6,-97.6 27.6,-97.6 68.43,-97.6 68.43,-97.6 73.23,-97.6 78.03,-102.4 78.03,-107.2 78.03,-107.2 78.03,-116.8 78.03,-116.8 78.03,-121.6 73.23,-126.4 68.43,-126.4"/>
<text xml:space="preserve" text-anchor="middle" x="48.01" y="-107.55" font-family="Helvetica,sans-Serif" font-size="11.00">Question</text>
</g>
<!-- c_l -->
<g id="node5" class="node">
<title>c_l</title>
<path fill="#fff5f3" stroke="#c44536" d="M216.18,-128.32C216.18,-128.32 129.91,-128.32 129.91,-128.32 124.47,-128.32 119.03,-122.88 119.03,-117.44 119.03,-117.44 119.03,-106.56 119.03,-106.56 119.03,-101.12 124.47,-95.68 129.91,-95.68 129.91,-95.68 216.18,-95.68 216.18,-95.68 221.62,-95.68 227.06,-101.12 227.06,-106.56 227.06,-106.56 227.06,-117.44 227.06,-117.44 227.06,-122.88 221.62,-128.32 216.18,-128.32"/>
<text xml:space="preserve" text-anchor="middle" x="173.04" y="-113.55" font-family="Helvetica,sans-Serif" font-size="11.00">LLM</text>
<text xml:space="preserve" text-anchor="middle" x="173.04" y="-101.55" font-family="Helvetica,sans-Serif" font-size="11.00">(think step by step)</text>
</g>
<!-- c_q&#45;&gt;c_l -->
<g id="edge3" class="edge">
<title>c_q&#45;&gt;c_l</title>
<path fill="none" stroke="#555555" stroke-width="1.2" d="M78.48,-112C88.02,-112 98.98,-112 109.97,-112"/>
<polygon fill="#555555" stroke="#555555" stroke-width="1.2" points="109.94,-114.45 116.94,-112 109.94,-109.55 109.94,-114.45"/>
</g>
<!-- c_a -->
<g id="node6" class="node">
<title>c_a</title>
<path fill="#e6f7e6" stroke="#4a8a4a" d="M345.99,-126.4C345.99,-126.4 311.16,-126.4 311.16,-126.4 306.36,-126.4 301.56,-121.6 301.56,-116.8 301.56,-116.8 301.56,-107.2 301.56,-107.2 301.56,-102.4 306.36,-97.6 311.16,-97.6 311.16,-97.6 345.99,-97.6 345.99,-97.6 350.79,-97.6 355.59,-102.4 355.59,-107.2 355.59,-107.2 355.59,-116.8 355.59,-116.8 355.59,-121.6 350.79,-126.4 345.99,-126.4"/>
<text xml:space="preserve" text-anchor="middle" x="328.57" y="-107.55" font-family="Helvetica,sans-Serif" font-size="11.00">Answer</text>
</g>
<!-- c_l&#45;&gt;c_a -->
<g id="edge4" class="edge">
<title>c_l&#45;&gt;c_a</title>
<path fill="none" stroke="#555555" stroke-width="1.2" d="M227.31,-112C248.84,-112 273.11,-112 292.37,-112"/>
<polygon fill="#555555" stroke="#555555" stroke-width="1.2" points="292.3,-114.45 299.3,-112 292.3,-109.55 292.3,-114.45"/>
</g>
<!-- a_q -->
<g id="node7" class="node">
<title>a_q</title>
<path fill="#f3f3f3" stroke="#bbbbbb" d="M68.43,-222.4C68.43,-222.4 27.6,-222.4 27.6,-222.4 22.8,-222.4 18,-217.6 18,-212.8 18,-212.8 18,-203.2 18,-203.2 18,-198.4 22.8,-193.6 27.6,-193.6 27.6,-193.6 68.43,-193.6 68.43,-193.6 73.23,-193.6 78.03,-198.4 78.03,-203.2 78.03,-203.2 78.03,-212.8 78.03,-212.8 78.03,-217.6 73.23,-222.4 68.43,-222.4"/>
<text xml:space="preserve" text-anchor="middle" x="48.01" y="-203.55" font-family="Helvetica,sans-Serif" font-size="11.00">Question</text>
</g>
<!-- a_l -->
<g id="node8" class="node">
<title>a_l</title>
<path fill="#fff5f3" stroke="#c44536" d="M194.8,-224.32C194.8,-224.32 151.28,-224.32 151.28,-224.32 145.84,-224.32 140.4,-218.88 140.4,-213.44 140.4,-213.44 140.4,-202.56 140.4,-202.56 140.4,-197.12 145.84,-191.68 151.28,-191.68 151.28,-191.68 194.8,-191.68 194.8,-191.68 200.24,-191.68 205.68,-197.12 205.68,-202.56 205.68,-202.56 205.68,-213.44 205.68,-213.44 205.68,-218.88 200.24,-224.32 194.8,-224.32"/>
<text xml:space="preserve" text-anchor="middle" x="173.04" y="-209.55" font-family="Helvetica,sans-Serif" font-size="11.00">LLM picks</text>
<text xml:space="preserve" text-anchor="middle" x="173.04" y="-197.55" font-family="Helvetica,sans-Serif" font-size="11.00">tool + arg</text>
</g>
<!-- a_q&#45;&gt;a_l -->
<g id="edge5" class="edge">
<title>a_q&#45;&gt;a_l</title>
<path fill="none" stroke="#555555" stroke-width="1.2" d="M78.48,-208C94.34,-208 114.15,-208 131.45,-208"/>
<polygon fill="#555555" stroke="#555555" stroke-width="1.2" points="131.41,-210.45 138.41,-208 131.41,-205.55 131.41,-210.45"/>
</g>
<!-- a_t -->
<g id="node9" class="node">
<title>a_t</title>
<path fill="#e8f4ff" stroke="#5a9bd4" d="M345.97,-206.4C345.97,-206.4 311.17,-206.4 311.17,-206.4 306.37,-206.4 301.57,-201.6 301.57,-196.8 301.57,-196.8 301.57,-187.2 301.57,-187.2 301.57,-182.4 306.37,-177.6 311.17,-177.6 311.17,-177.6 345.97,-177.6 345.97,-177.6 350.77,-177.6 355.57,-182.4 355.57,-187.2 355.57,-187.2 355.57,-196.8 355.57,-196.8 355.57,-201.6 350.77,-206.4 345.97,-206.4"/>
<text xml:space="preserve" text-anchor="middle" x="328.57" y="-187.55" font-family="Helvetica,sans-Serif" font-size="11.00">Tool</text>
</g>
<!-- a_l&#45;&gt;a_t -->
<g id="edge6" class="edge">
<title>a_l&#45;&gt;a_t</title>
<path fill="none" stroke="#555555" stroke-width="1.2" d="M205.86,-204.68C231.27,-202.04 266.82,-198.33 292.94,-195.61"/>
<polygon fill="#555555" stroke="#555555" stroke-width="1.2" points="292.9,-198.08 299.61,-194.91 292.39,-193.2 292.9,-198.08"/>
</g>
<!-- a_a -->
<g id="node11" class="node">
<title>a_a</title>
<path fill="#e6f7e6" stroke="#4a8a4a" d="M345.99,-260.4C345.99,-260.4 311.16,-260.4 311.16,-260.4 306.36,-260.4 301.56,-255.6 301.56,-250.8 301.56,-250.8 301.56,-241.2 301.56,-241.2 301.56,-236.4 306.36,-231.6 311.16,-231.6 311.16,-231.6 345.99,-231.6 345.99,-231.6 350.79,-231.6 355.59,-236.4 355.59,-241.2 355.59,-241.2 355.59,-250.8 355.59,-250.8 355.59,-255.6 350.79,-260.4 345.99,-260.4"/>
<text xml:space="preserve" text-anchor="middle" x="328.57" y="-241.55" font-family="Helvetica,sans-Serif" font-size="11.00">Answer</text>
</g>
<!-- a_l&#45;&gt;a_a -->
<g id="edge9" class="edge">
<title>a_l&#45;&gt;a_a</title>
<path fill="none" stroke="#555555" stroke-width="1.2" stroke-dasharray="5,2" d="M205.86,-215.87C231.27,-222.16 266.82,-230.96 292.94,-237.43"/>
<polygon fill="#555555" stroke="#555555" stroke-width="1.2" points="292.27,-239.78 299.65,-239.09 293.44,-235.03 292.27,-239.78"/>
<text xml:space="preserve" text-anchor="middle" x="260.18" y="-233.27" font-family="Helvetica,sans-Serif" font-size="10.00">Finish</text>
</g>
<!-- a_o -->
<g id="node10" class="node">
<title>a_o</title>
<path fill="#e8f4ff" stroke="#5a9bd4" d="M470.27,-206.4C470.27,-206.4 414.44,-206.4 414.44,-206.4 409.64,-206.4 404.84,-201.6 404.84,-196.8 404.84,-196.8 404.84,-187.2 404.84,-187.2 404.84,-182.4 409.64,-177.6 414.44,-177.6 414.44,-177.6 470.27,-177.6 470.27,-177.6 475.07,-177.6 479.87,-182.4 479.87,-187.2 479.87,-187.2 479.87,-196.8 479.87,-196.8 479.87,-201.6 475.07,-206.4 470.27,-206.4"/>
<text xml:space="preserve" text-anchor="middle" x="442.35" y="-187.55" font-family="Helvetica,sans-Serif" font-size="11.00">Observation</text>
</g>
<!-- a_t&#45;&gt;a_o -->
<g id="edge7" class="edge">
<title>a_t&#45;&gt;a_o</title>
<path fill="none" stroke="#555555" stroke-width="1.2" d="M356.07,-192C367.93,-192 382.26,-192 395.76,-192"/>
<polygon fill="#555555" stroke="#555555" stroke-width="1.2" points="395.67,-194.45 402.67,-192 395.67,-189.55 395.67,-194.45"/>
</g>
<!-- a_o&#45;&gt;a_l -->
<g id="edge8" class="edge">
<title>a_o&#45;&gt;a_l</title>
<path fill="none" stroke="#555555" stroke-width="1.2" stroke-dasharray="5,2" d="M432.89,-206.83C420.83,-226.28 396.68,-259.51 365.59,-273 308.42,-297.81 238.47,-256.99 200.93,-229.61"/>
<polygon fill="#555555" stroke="#555555" stroke-width="1.2" points="202.84,-227.98 195.76,-225.76 199.91,-231.9 202.84,-227.98"/>
<text xml:space="preserve" text-anchor="middle" x="328.57" y="-282.43" font-family="Helvetica,sans-Serif" font-size="10.00">loop</text>
</g>
<!-- r_q -->
<g id="node12" class="node">
<title>r_q</title>
<path fill="#f3f3f3" stroke="#bbbbbb" d="M68.43,-422.4C68.43,-422.4 27.6,-422.4 27.6,-422.4 22.8,-422.4 18,-417.6 18,-412.8 18,-412.8 18,-403.2 18,-403.2 18,-398.4 22.8,-393.6 27.6,-393.6 27.6,-393.6 68.43,-393.6 68.43,-393.6 73.23,-393.6 78.03,-398.4 78.03,-403.2 78.03,-403.2 78.03,-412.8 78.03,-412.8 78.03,-417.6 73.23,-422.4 68.43,-422.4"/>
<text xml:space="preserve" text-anchor="middle" x="48.01" y="-403.55" font-family="Helvetica,sans-Serif" font-size="11.00">Question</text>
</g>
<!-- r_t -->
<g id="node13" class="node">
<title>r_t</title>
<path fill="#fff5f3" stroke="#c44536" d="M207.93,-424.32C207.93,-424.32 138.16,-424.32 138.16,-424.32 132.72,-424.32 127.28,-418.88 127.28,-413.44 127.28,-413.44 127.28,-402.56 127.28,-402.56 127.28,-397.12 132.72,-391.68 138.16,-391.68 138.16,-391.68 207.93,-391.68 207.93,-391.68 213.37,-391.68 218.81,-397.12 218.81,-402.56 218.81,-402.56 218.81,-413.44 218.81,-413.44 218.81,-418.88 213.37,-424.32 207.93,-424.32"/>
<text xml:space="preserve" text-anchor="middle" x="173.04" y="-409.55" font-family="Helvetica,sans-Serif" font-size="11.00">Thought</text>
<text xml:space="preserve" text-anchor="middle" x="173.04" y="-397.55" font-family="Helvetica,sans-Serif" font-size="11.00">(plan next step)</text>
</g>
<!-- r_q&#45;&gt;r_t -->
<g id="edge10" class="edge">
<title>r_q&#45;&gt;r_t</title>
<path fill="none" stroke="#555555" stroke-width="1.2" d="M78.48,-408C90.49,-408 104.76,-408 118.5,-408"/>
<polygon fill="#555555" stroke="#555555" stroke-width="1.2" points="118.13,-410.45 125.13,-408 118.13,-405.55 118.13,-410.45"/>
</g>
<!-- r_act -->
<g id="node14" class="node">
<title>r_act</title>
<path fill="#fff5f3" stroke="#c44536" d="M352.96,-403.32C352.96,-403.32 304.19,-403.32 304.19,-403.32 298.75,-403.32 293.31,-397.88 293.31,-392.44 293.31,-392.44 293.31,-381.56 293.31,-381.56 293.31,-376.12 298.75,-370.68 304.19,-370.68 304.19,-370.68 352.96,-370.68 352.96,-370.68 358.4,-370.68 363.84,-376.12 363.84,-381.56 363.84,-381.56 363.84,-392.44 363.84,-392.44 363.84,-397.88 358.4,-403.32 352.96,-403.32"/>
<text xml:space="preserve" text-anchor="middle" x="328.57" y="-388.55" font-family="Helvetica,sans-Serif" font-size="11.00">Action</text>
<text xml:space="preserve" text-anchor="middle" x="328.57" y="-376.55" font-family="Helvetica,sans-Serif" font-size="11.00">(tool + arg)</text>
</g>
<!-- r_t&#45;&gt;r_act -->
<g id="edge11" class="edge">
<title>r_t&#45;&gt;r_act</title>
<path fill="none" stroke="#555555" stroke-width="1.2" d="M219.28,-401.81C239.77,-399.01 263.9,-395.71 284.17,-392.94"/>
<polygon fill="#555555" stroke="#555555" stroke-width="1.2" points="284.49,-395.37 291.09,-391.99 283.83,-390.51 284.49,-395.37"/>
</g>
<!-- r_a -->
<g id="node16" class="node">
<title>r_a</title>
<path fill="#e6f7e6" stroke="#4a8a4a" d="M345.99,-457.4C345.99,-457.4 311.16,-457.4 311.16,-457.4 306.36,-457.4 301.56,-452.6 301.56,-447.8 301.56,-447.8 301.56,-438.2 301.56,-438.2 301.56,-433.4 306.36,-428.6 311.16,-428.6 311.16,-428.6 345.99,-428.6 345.99,-428.6 350.79,-428.6 355.59,-433.4 355.59,-438.2 355.59,-438.2 355.59,-447.8 355.59,-447.8 355.59,-452.6 350.79,-457.4 345.99,-457.4"/>
<text xml:space="preserve" text-anchor="middle" x="328.57" y="-438.55" font-family="Helvetica,sans-Serif" font-size="11.00">Answer</text>
</g>
<!-- r_t&#45;&gt;r_a -->
<g id="edge14" class="edge">
<title>r_t&#45;&gt;r_a</title>
<path fill="none" stroke="#555555" stroke-width="1.2" stroke-dasharray="5,2" d="M219.28,-418.31C242.76,-423.66 271,-430.1 292.75,-435.06"/>
<polygon fill="#555555" stroke="#555555" stroke-width="1.2" points="292.21,-437.45 299.57,-436.62 293.29,-432.67 292.21,-437.45"/>
<text xml:space="preserve" text-anchor="middle" x="260.18" y="-431.41" font-family="Helvetica,sans-Serif" font-size="10.00">Finish</text>
</g>
<!-- r_obs -->
<g id="node15" class="node">
<title>r_obs</title>
<path fill="#e8f4ff" stroke="#5a9bd4" d="M468.99,-403.32C468.99,-403.32 415.72,-403.32 415.72,-403.32 410.28,-403.32 404.84,-397.88 404.84,-392.44 404.84,-392.44 404.84,-381.56 404.84,-381.56 404.84,-376.12 410.28,-370.68 415.72,-370.68 415.72,-370.68 468.99,-370.68 468.99,-370.68 474.43,-370.68 479.87,-376.12 479.87,-381.56 479.87,-381.56 479.87,-392.44 479.87,-392.44 479.87,-397.88 474.43,-403.32 468.99,-403.32"/>
<text xml:space="preserve" text-anchor="middle" x="442.35" y="-388.55" font-family="Helvetica,sans-Serif" font-size="11.00">Observation</text>
<text xml:space="preserve" text-anchor="middle" x="442.35" y="-376.55" font-family="Helvetica,sans-Serif" font-size="11.00">(tool result)</text>
</g>
<!-- r_act&#45;&gt;r_obs -->
<g id="edge12" class="edge">
<title>r_act&#45;&gt;r_obs</title>
<path fill="none" stroke="#555555" stroke-width="1.2" d="M364.33,-387C374.34,-387 385.42,-387 395.98,-387"/>
<polygon fill="#555555" stroke="#555555" stroke-width="1.2" points="395.87,-389.45 402.87,-387 395.87,-384.55 395.87,-389.45"/>
</g>
<!-- r_obs&#45;&gt;r_t -->
<g id="edge13" class="edge">
<title>r_obs&#45;&gt;r_t</title>
<path fill="none" stroke="#555555" stroke-width="1.2" stroke-dasharray="5,2" d="M432.15,-403.57C419.94,-423.64 396.29,-456.46 365.59,-470 309.38,-494.8 240.05,-456.31 202.12,-429.75"/>
<polygon fill="#555555" stroke="#555555" stroke-width="1.2" points="203.56,-427.77 196.45,-425.68 200.71,-431.75 203.56,-427.77"/>
<text xml:space="preserve" text-anchor="middle" x="328.57" y="-479.73" font-family="Helvetica,sans-Serif" font-size="10.00">loop</text>
</g>
</g>
</svg>
