<?xml version="1.0" encoding="utf-8" standalone="no"?>
<!DOCTYPE svg PUBLIC "-//W3C//DTD SVG 1.1//EN"
  "http://www.w3.org/Graphics/SVG/1.1/DTD/svg11.dtd">
<svg xmlns:xlink="http://www.w3.org/1999/xlink" width="386.845312pt" height="248.518125pt" viewBox="0 0 386.845312 248.518125" xmlns="http://www.w3.org/2000/svg" version="1.1">
 <metadata>
  <rdf:RDF xmlns:dc="http://purl.org/dc/elements/1.1/" xmlns:cc="http://creativecommons.org/ns#" xmlns:rdf="http://www.w3.org/1999/02/22-rdf-syntax-ns#">
   <cc:Work>
    <dc:type rdf:resource="http://purl.org/dc/dcmitype/StillImage"/>
    <dc:date>2022-10-26T11:40:48.174226</dc:date>
    <dc:format>image/svg+xml</dc:format>
    <dc:creator>
     <cc:Agent>
      <dc:title>Matplotlib v3.5.2, https://matplotlib.org/</dc:title>
     </cc:Agent>
    </dc:creator>
   </cc:Work>
  </rdf:RDF>
 </metadata>
 <defs>
  <style type="text/css">*{stroke-linejoin: round; stroke-linecap: butt}</style>
 </defs>
 <g id="figure_1">
  <g id="patch_1">
   <path d="M 0 248.518125 
L 386.845312 248.518125 
L 386.845312 0 
L 0 0 
L 0 248.518125 
z
" style="fill: none"/>
  </g>
  <g id="axes_1">
   <g id="patch_2">
    <path d="M 44.845313 224.64 
L 379.645313 224.64 
L 379.645313 7.2 
L 44.845313 7.2 
z
" style="fill: #ffffff"/>
   </g>
   <g id="matplotlib.axis_1">
    <g id="xtick_1">
     <g id="line2d_1">
      <defs>
       <path id="mf10a0f4952" d="M 0 0 
L 0 3.5 
" style="stroke: #000000; stroke-width: 0.8"/>
      </defs>
      <g>
       <use xlink:href="#mf10a0f4952" x="60.063494" y="224.64" style="stroke: #000000; stroke-width: 0.8"/>
      </g>
     </g>
     <g id="text_1">
      <!-- −3 -->
      <g transform="translate(52.692401 239.238437)scale(0.1 -0.1)">
       <defs>
        <path id="DejaVuSans-2212" d="M 678 2272 
L 4684 2272 
L 4684 1741 
L 678 1741 
L 678 2272 
z
" transform="scale(0.015625)"/>
        <path id="DejaVuSans-33" d="M 2597 2516 
Q 3050 2419 3304 2112 
Q 3559 1806 3559 1356 
Q 3559 666 3084 287 
Q 2609 -91 1734 -91 
Q 1441 -91 1130 -33 
Q 819 25 488 141 
L 488 750 
Q 750 597 1062 519 
Q 1375 441 1716 441 
Q 2309 441 2620 675 
Q 2931 909 2931 1356 
Q 2931 1769 2642 2001 
Q 2353 2234 1838 2234 
L 1294 2234 
L 1294 2753 
L 1863 2753 
Q 2328 2753 2575 2939 
Q 2822 3125 2822 3475 
Q 2822 3834 2567 4026 
Q 2313 4219 1838 4219 
Q 1578 4219 1281 4162 
Q 984 4106 628 3988 
L 628 4550 
Q 988 4650 1302 4700 
Q 1616 4750 1894 4750 
Q 2613 4750 3031 4423 
Q 3450 4097 3450 3541 
Q 3450 3153 3228 2886 
Q 3006 2619 2597 2516 
z
" transform="scale(0.015625)"/>
       </defs>
       <use xlink:href="#DejaVuSans-2212"/>
       <use xlink:href="#DejaVuSans-33" x="83.789062"/>
      </g>
     </g>
    </g>
    <g id="xtick_2">
     <g id="line2d_2">
      <g>
       <use xlink:href="#mf10a0f4952" x="110.790767" y="224.64" style="stroke: #000000; stroke-width: 0.8"/>
      </g>
     </g>
     <g id="text_2">
      <!-- −2 -->
      <g transform="translate(103.419673 239.238437)scale(0.1 -0.1)">
       <defs>
        <path id="DejaVuSans-32" d="M 1228 531 
L 3431 531 
L 3431 0 
L 469 0 
L 469 531 
Q 828 903 1448 1529 
Q 2069 2156 2228 2338 
Q 2531 2678 2651 2914 
Q 2772 3150 2772 3378 
Q 2772 3750 2511 3984 
Q 2250 4219 1831 4219 
Q 1534 4219 1204 4116 
Q 875 4013 500 3803 
L 500 4441 
Q 881 4594 1212 4672 
Q 1544 4750 1819 4750 
Q 2544 4750 2975 4387 
Q 3406 4025 3406 3419 
Q 3406 3131 3298 2873 
Q 3191 2616 2906 2266 
Q 2828 2175 2409 1742 
Q 1991 1309 1228 531 
z
" transform="scale(0.015625)"/>
       </defs>
       <use xlink:href="#DejaVuSans-2212"/>
       <use xlink:href="#DejaVuSans-32" x="83.789062"/>
      </g>
     </g>
    </g>
    <g id="xtick_3">
     <g id="line2d_3">
      <g>
       <use xlink:href="#mf10a0f4952" x="161.51804" y="224.64" style="stroke: #000000; stroke-width: 0.8"/>
      </g>
     </g>
     <g id="text_3">
      <!-- −1 -->
      <g transform="translate(154.146946 239.238437)scale(0.1 -0.1)">
       <defs>
        <path id="DejaVuSans-31" d="M 794 531 
L 1825 531 
L 1825 4091 
L 703 3866 
L 703 4441 
L 1819 4666 
L 2450 4666 
L 2450 531 
L 3481 531 
L 3481 0 
L 794 0 
L 794 531 
z
" transform="scale(0.015625)"/>
       </defs>
       <use xlink:href="#DejaVuSans-2212"/>
       <use xlink:href="#DejaVuSans-31" x="83.789062"/>
      </g>
     </g>
    </g>
    <g id="xtick_4">
     <g id="line2d_4">
      <g>
       <use xlink:href="#mf10a0f4952" x="212.245313" y="224.64" style="stroke: #000000; stroke-width: 0.8"/>
      </g>
     </g>
     <g id="text_4">
      <!-- 0 -->
      <g transform="translate(209.064063 239.238437)scale(0.1 -0.1)">
       <defs>
        <path id="DejaVuSans-30" d="M 2034 4250 
Q 1547 4250 1301 3770 
Q 1056 3291 1056 2328 
Q 1056 1369 1301 889 
Q 1547 409 2034 409 
Q 2525 409 2770 889 
Q 3016 1369 3016 2328 
Q 3016 3291 2770 3770 
Q 2525 4250 2034 4250 
z
M 2034 4750 
Q 2819 4750 3233 4129 
Q 3647 3509 3647 2328 
Q 3647 1150 3233 529 
Q 2819 -91 2034 -91 
Q 1250 -91 836 529 
Q 422 1150 422 2328 
Q 422 3509 836 4129 
Q 1250 4750 2034 4750 
z
" transform="scale(0.015625)"/>
       </defs>
       <use xlink:href="#DejaVuSans-30"/>
      </g>
     </g>
    </g>
    <g id="xtick_5">
     <g id="line2d_5">
      <g>
       <use xlink:href="#mf10a0f4952" x="262.972585" y="224.64" style="stroke: #000000; stroke-width: 0.8"/>
      </g>
     </g>
     <g id="text_5">
      <!-- 1 -->
      <g transform="translate(259.791335 239.238437)scale(0.1 -0.1)">
       <use xlink:href="#DejaVuSans-31"/>
      </g>
     </g>
    </g>
    <g id="xtick_6">
     <g id="line2d_6">
      <g>
       <use xlink:href="#mf10a0f4952" x="313.699858" y="224.64" style="stroke: #000000; stroke-width: 0.8"/>
      </g>
     </g>
     <g id="text_6">
      <!-- 2 -->
      <g transform="translate(310.518608 239.238437)scale(0.1 -0.1)">
       <use xlink:href="#DejaVuSans-32"/>
      </g>
     </g>
    </g>
    <g id="xtick_7">
     <g id="line2d_7">
      <g>
       <use xlink:href="#mf10a0f4952" x="364.427131" y="224.64" style="stroke: #000000; stroke-width: 0.8"/>
      </g>
     </g>
     <g id="text_7">
      <!-- 3 -->
      <g transform="translate(361.245881 239.238437)scale(0.1 -0.1)">
       <use xlink:href="#DejaVuSans-33"/>
      </g>
     </g>
    </g>
   </g>
   <g id="matplotlib.axis_2">
    <g id="ytick_1">
     <g id="line2d_8">
      <defs>
       <path id="m5e28f105c0" d="M 0 0 
L -3.5 0 
" style="stroke: #000000; stroke-width: 0.8"/>
      </defs>
      <g>
       <use xlink:href="#m5e28f105c0" x="44.845313" y="198.654213" style="stroke: #000000; stroke-width: 0.8"/>
      </g>
     </g>
     <g id="text_8">
      <!-- −0.50 -->
      <g transform="translate(7.2 202.453431)scale(0.1 -0.1)">
       <defs>
        <path id="DejaVuSans-2e" d="M 684 794 
L 1344 794 
L 1344 0 
L 684 0 
L 684 794 
z
" transform="scale(0.015625)"/>
        <path id="DejaVuSans-35" d="M 691 4666 
L 3169 4666 
L 3169 4134 
L 1269 4134 
L 1269 2991 
Q 1406 3038 1543 3061 
Q 1681 3084 1819 3084 
Q 2600 3084 3056 2656 
Q 3513 2228 3513 1497 
Q 3513 744 3044 326 
Q 2575 -91 1722 -91 
Q 1428 -91 1123 -41 
Q 819 9 494 109 
L 494 744 
Q 775 591 1075 516 
Q 1375 441 1709 441 
Q 2250 441 2565 725 
Q 2881 1009 2881 1497 
Q 2881 1984 2565 2268 
Q 2250 2553 1709 2553 
Q 1456 2553 1204 2497 
Q 953 2441 691 2322 
L 691 4666 
z
" transform="scale(0.015625)"/>
       </defs>
       <use xlink:href="#DejaVuSans-2212"/>
       <use xlink:href="#DejaVuSans-30" x="83.789062"/>
       <use xlink:href="#DejaVuSans-2e" x="147.412109"/>
       <use xlink:href="#DejaVuSans-35" x="179.199219"/>
       <use xlink:href="#DejaVuSans-30" x="242.822266"/>
      </g>
     </g>
    </g>
    <g id="ytick_2">
     <g id="line2d_9">
      <g>
       <use xlink:href="#m5e28f105c0" x="44.845313" y="169.305207" style="stroke: #000000; stroke-width: 0.8"/>
      </g>
     </g>
     <g id="text_9">
      <!-- −0.25 -->
      <g transform="translate(7.2 173.104425)scale(0.1 -0.1)">
       <use xlink:href="#DejaVuSans-2212"/>
       <use xlink:href="#DejaVuSans-30" x="83.789062"/>
       <use xlink:href="#DejaVuSans-2e" x="147.412109"/>
       <use xlink:href="#DejaVuSans-32" x="179.199219"/>
       <use xlink:href="#DejaVuSans-35" x="242.822266"/>
      </g>
     </g>
    </g>
    <g id="ytick_3">
     <g id="line2d_10">
      <g>
       <use xlink:href="#m5e28f105c0" x="44.845313" y="139.956201" style="stroke: #000000; stroke-width: 0.8"/>
      </g>
     </g>
     <g id="text_10">
      <!-- 0.00 -->
      <g transform="translate(15.579688 143.755419)scale(0.1 -0.1)">
       <use xlink:href="#DejaVuSans-30"/>
       <use xlink:href="#DejaVuSans-2e" x="63.623047"/>
       <use xlink:href="#DejaVuSans-30" x="95.410156"/>
       <use xlink:href="#DejaVuSans-30" x="159.033203"/>
      </g>
     </g>
    </g>
    <g id="ytick_4">
     <g id="line2d_11">
      <g>
       <use xlink:href="#m5e28f105c0" x="44.845313" y="110.607194" style="stroke: #000000; stroke-width: 0.8"/>
      </g>
     </g>
     <g id="text_11">
      <!-- 0.25 -->
      <g transform="translate(15.579688 114.406413)scale(0.1 -0.1)">
       <use xlink:href="#DejaVuSans-30"/>
       <use xlink:href="#DejaVuSans-2e" x="63.623047"/>
       <use xlink:href="#DejaVuSans-32" x="95.410156"/>
       <use xlink:href="#DejaVuSans-35" x="159.033203"/>
      </g>
     </g>
    </g>
    <g id="ytick_5">
     <g id="line2d_12">
      <g>
       <use xlink:href="#m5e28f105c0" x="44.845313" y="81.258188" style="stroke: #000000; stroke-width: 0.8"/>
      </g>
     </g>
     <g id="text_12">
      <!-- 0.50 -->
      <g transform="translate(15.579688 85.057407)scale(0.1 -0.1)">
       <use xlink:href="#DejaVuSans-30"/>
       <use xlink:href="#DejaVuSans-2e" x="63.623047"/>
       <use xlink:href="#DejaVuSans-35" x="95.410156"/>
       <use xlink:href="#DejaVuSans-30" x="159.033203"/>
      </g>
     </g>
    </g>
    <g id="ytick_6">
     <g id="line2d_13">
      <g>
       <use xlink:href="#m5e28f105c0" x="44.845313" y="51.909182" style="stroke: #000000; stroke-width: 0.8"/>
      </g>
     </g>
     <g id="text_13">
      <!-- 0.75 -->
      <g transform="translate(15.579688 55.708401)scale(0.1 -0.1)">
       <defs>
        <path id="DejaVuSans-37" d="M 525 4666 
L 3525 4666 
L 3525 4397 
L 1831 0 
L 1172 0 
L 2766 4134 
L 525 4134 
L 525 4666 
z
" transform="scale(0.015625)"/>
       </defs>
       <use xlink:href="#DejaVuSans-30"/>
       <use xlink:href="#DejaVuSans-2e" x="63.623047"/>
       <use xlink:href="#DejaVuSans-37" x="95.410156"/>
       <use xlink:href="#DejaVuSans-35" x="159.033203"/>
      </g>
     </g>
    </g>
    <g id="ytick_7">
     <g id="line2d_14">
      <g>
       <use xlink:href="#m5e28f105c0" x="44.845313" y="22.560176" style="stroke: #000000; stroke-width: 0.8"/>
      </g>
     </g>
     <g id="text_14">
      <!-- 1.00 -->
      <g transform="translate(15.579688 26.359395)scale(0.1 -0.1)">
       <use xlink:href="#DejaVuSans-31"/>
       <use xlink:href="#DejaVuSans-2e" x="63.623047"/>
       <use xlink:href="#DejaVuSans-30" x="95.410156"/>
       <use xlink:href="#DejaVuSans-30" x="159.033203"/>
      </g>
     </g>
    </g>
   </g>
   <g id="line2d_15">
    <path d="M 60.063494 146.07561 
L 66.274997 152.065787 
L 72.4865 157.979008 
L 78.698003 163.600322 
L 84.909505 168.556514 
L 91.121008 172.521483 
L 97.332511 175.907093 
L 103.544014 178.433809 
L 109.755517 179.826972 
L 115.967019 180.259734 
L 122.178522 179.717061 
L 128.390025 178.131487 
L 134.601528 175.533093 
L 140.81303 171.804253 
L 147.024533 167.298537 
L 153.236036 162.304679 
L 159.447539 156.613397 
L 165.659042 150.523002 
L 171.870544 144.126594 
L 178.082047 137.719724 
L 184.29355 131.287311 
L 190.505053 125.258074 
L 196.716556 119.275814 
L 202.928058 114.199873 
L 209.139561 110.073476 
L 215.351064 106.780465 
L 221.562567 104.044825 
L 227.774069 102.616479 
L 233.985572 102.459911 
L 240.197075 103.707156 
L 246.408578 105.710576 
L 252.620081 108.793418 
L 258.831583 112.996278 
L 265.043086 118.735729 
L 271.254589 124.686298 
L 277.466092 131.232728 
L 283.677595 138.575947 
L 289.889097 145.924064 
L 296.1006 153.936875 
L 302.312103 161.389308 
L 308.523606 168.667352 
L 314.735108 175.542455 
L 320.946611 181.550288 
L 327.158114 186.569119 
L 333.369617 191.06973 
L 339.58112 194.092685 
L 345.792622 195.967872 
L 352.004125 197.085494 
L 358.215628 196.664322 
L 364.427131 194.739144 
" clip-path="url(#p8d8c7543de)" style="fill: none; stroke: #008000; stroke-width: 1.5; stroke-linecap: square"/>
   </g>
   <g id="line2d_16">
    <path d="M 60.063494 144.685577 
L 66.274997 149.360845 
L 72.4865 153.877186 
L 78.698003 158.322161 
L 84.909505 162.141024 
L 91.121008 165.511003 
L 97.332511 168.047757 
L 103.544014 169.835018 
L 109.755517 170.751246 
L 115.967019 171.239216 
L 122.178522 170.906068 
L 128.390025 169.623055 
L 134.601528 167.502193 
L 140.81303 164.865896 
L 147.024533 161.191288 
L 153.236036 157.232958 
L 159.447539 153.221923 
L 165.659042 148.322467 
L 171.870544 143.393198 
L 178.082047 137.999497 
L 184.29355 133.127818 
L 190.505053 128.525134 
L 196.716556 123.954411 
L 202.928058 120.030498 
L 209.139561 116.890115 
L 215.351064 114.122782 
L 221.562567 111.962455 
L 227.774069 110.910434 
L 233.985572 110.687746 
L 240.197075 111.559079 
L 246.408578 113.316396 
L 252.620081 115.658333 
L 258.831583 118.930903 
L 265.043086 123.294123 
L 271.254589 127.838151 
L 277.466092 133.368095 
L 283.677595 138.934754 
L 289.889097 144.801092 
L 296.1006 150.753955 
L 302.312103 156.728351 
L 308.523606 162.572046 
L 314.735108 167.632675 
L 320.946611 172.305445 
L 327.158114 176.213169 
L 333.369617 179.42024 
L 339.58112 182.160523 
L 345.792622 183.559082 
L 352.004125 184.304814 
L 358.215628 183.995178 
L 364.427131 182.791603 
" clip-path="url(#p8d8c7543de)" style="fill: none; stroke: #ff0000; stroke-width: 1.5; stroke-linecap: square"/>
   </g>
   <g id="line2d_17">
    <path d="M 60.063494 214.756364 
L 66.274997 208.138389 
L 72.4865 201.025267 
L 78.698003 194.105883 
L 84.909505 186.741418 
L 91.121008 179.359504 
L 97.332511 171.947827 
L 103.544014 164.635236 
L 109.755517 157.520487 
L 115.967019 151.412137 
L 122.178522 145.071948 
L 128.390025 139.588281 
L 134.601528 134.041063 
L 140.81303 129.35527 
L 147.024533 125.226488 
L 153.236036 121.694678 
L 159.447539 118.696544 
L 165.659042 115.825751 
L 171.870544 113.798254 
L 178.082047 111.852117 
L 184.29355 110.343586 
L 190.505053 108.810953 
L 196.716556 107.62575 
L 202.928058 106.728187 
L 209.139561 105.789163 
L 215.351064 104.381426 
L 221.562567 103.344972 
L 227.774069 101.893458 
L 233.985572 100.000608 
L 240.197075 98.262499 
L 246.408578 96.318047 
L 252.620081 93.591353 
L 258.831583 91.268739 
L 265.043086 87.976858 
L 271.254589 84.768873 
L 277.466092 80.989269 
L 283.677595 77.153006 
L 289.889097 73.086801 
L 296.1006 68.44522 
L 302.312103 63.823756 
L 308.523606 58.753107 
L 314.735108 53.496823 
L 320.946611 49.015709 
L 327.158114 43.847792 
L 333.369617 38.985689 
L 339.58112 33.668805 
L 345.792622 29.486897 
L 352.004125 25.089946 
L 358.215628 20.758251 
L 364.427131 17.083636 
" clip-path="url(#p8d8c7543de)" style="fill: none; stroke: #008000; stroke-width: 1.5; stroke-linecap: square"/>
   </g>
   <g id="line2d_18">
    <path d="M 60.063494 198.156787 
L 66.274997 192.931809 
L 72.4865 187.603203 
L 78.698003 181.807019 
L 84.909505 176.398644 
L 91.121008 170.486298 
L 97.332511 164.871938 
L 103.544014 159.11886 
L 109.755517 153.717548 
L 115.967019 148.811574 
L 122.178522 144.240541 
L 128.390025 139.50433 
L 134.601528 135.383817 
L 140.81303 131.402431 
L 147.024533 128.50243 
L 153.236036 126.035028 
L 159.447539 123.294619 
L 165.659042 121.124742 
L 171.870544 119.607443 
L 178.082047 118.148912 
L 184.29355 116.974747 
L 190.505053 115.784787 
L 196.716556 114.640061 
L 202.928058 114.183942 
L 209.139561 113.088434 
L 215.351064 112.636415 
L 221.562567 111.524607 
L 227.774069 110.311778 
L 233.985572 108.975108 
L 240.197075 107.724919 
L 246.408578 106.060851 
L 252.620081 103.977575 
L 258.831583 102.253586 
L 265.043086 99.37459 
L 271.254589 96.784443 
L 277.466092 94.285648 
L 283.677595 91.02381 
L 289.889097 87.76157 
L 296.1006 84.340118 
L 302.312103 80.784721 
L 308.523606 76.698008 
L 314.735108 72.772273 
L 320.946611 69.19721 
L 327.158114 65.148583 
L 333.369617 61.164049 
L 339.58112 57.404786 
L 345.792622 54.039797 
L 352.004125 50.324821 
L 358.215628 47.059801 
L 364.427131 44.483856 
" clip-path="url(#p8d8c7543de)" style="fill: none; stroke: #ff0000; stroke-width: 1.5; stroke-linecap: square"/>
   </g>
   <g id="patch_3">
    <path d="M 44.845313 224.64 
L 44.845313 7.2 
" style="fill: none; stroke: #000000; stroke-width: 0.8; stroke-linejoin: miter; stroke-linecap: square"/>
   </g>
   <g id="patch_4">
    <path d="M 379.645313 224.64 
L 379.645313 7.2 
" style="fill: none; stroke: #000000; stroke-width: 0.8; stroke-linejoin: miter; stroke-linecap: square"/>
   </g>
   <g id="patch_5">
    <path d="M 44.845313 224.64 
L 379.645313 224.64 
" style="fill: none; stroke: #000000; stroke-width: 0.8; stroke-linejoin: miter; stroke-linecap: square"/>
   </g>
   <g id="patch_6">
    <path d="M 44.845313 7.2 
L 379.645313 7.2 
" style="fill: none; stroke: #000000; stroke-width: 0.8; stroke-linejoin: miter; stroke-linecap: square"/>
   </g>
  </g>
 </g>
 <defs>
  <clipPath id="p8d8c7543de">
   <rect x="44.845313" y="7.2" width="334.8" height="217.44"/>
  </clipPath>
 </defs>
</svg>
