<?xml version="1.0" encoding="utf-8" standalone="no"?>
<!DOCTYPE svg PUBLIC "-//W3C//DTD SVG 1.1//EN"
  "http://www.w3.org/Graphics/SVG/1.1/DTD/svg11.dtd">
<svg xmlns:xlink="http://www.w3.org/1999/xlink" width="383.667187pt" height="248.518125pt" viewBox="0 0 383.667187 248.518125" xmlns="http://www.w3.org/2000/svg" version="1.1">
 <metadata>
  <rdf:RDF xmlns:dc="http://purl.org/dc/elements/1.1/" xmlns:cc="http://creativecommons.org/ns#" xmlns:rdf="http://www.w3.org/1999/02/22-rdf-syntax-ns#">
   <cc:Work>
    <dc:type rdf:resource="http://purl.org/dc/dcmitype/StillImage"/>
    <dc:date>2022-10-26T11:41:24.340458</dc:date>
    <dc:format>image/svg+xml</dc:format>
    <dc:creator>
     <cc:Agent>
      <dc:title>Matplotlib v3.5.2, https://matplotlib.org/</dc:title>
     </cc:Agent>
    </dc:creator>
   </cc:Work>
  </rdf:RDF>
 </metadata>
 <defs>
  <style type="text/css">*{stroke-linejoin: round; stroke-linecap: butt}</style>
 </defs>
 <g id="figure_1">
  <g id="patch_1">
   <path d="M 0 248.518125 
L 383.667187 248.518125 
L 383.667187 0 
L 0 0 
L 0 248.518125 
z
" style="fill: none"/>
  </g>
  <g id="axes_1">
   <g id="patch_2">
    <path d="M 41.667188 224.64 
L 376.467188 224.64 
L 376.467188 7.2 
L 41.667188 7.2 
z
" style="fill: #ffffff"/>
   </g>
   <g id="matplotlib.axis_1">
    <g id="xtick_1">
     <g id="line2d_1">
      <defs>
       <path id="mdc6a8eb181" d="M 0 0 
L 0 3.5 
" style="stroke: #000000; stroke-width: 0.8"/>
      </defs>
      <g>
       <use xlink:href="#mdc6a8eb181" x="56.885369" y="224.64" style="stroke: #000000; stroke-width: 0.8"/>
      </g>
     </g>
     <g id="text_1">
      <!-- −3 -->
      <g transform="translate(49.514276 239.238437)scale(0.1 -0.1)">
       <defs>
        <path id="DejaVuSans-2212" d="M 678 2272 
L 4684 2272 
L 4684 1741 
L 678 1741 
L 678 2272 
z
" transform="scale(0.015625)"/>
        <path id="DejaVuSans-33" d="M 2597 2516 
Q 3050 2419 3304 2112 
Q 3559 1806 3559 1356 
Q 3559 666 3084 287 
Q 2609 -91 1734 -91 
Q 1441 -91 1130 -33 
Q 819 25 488 141 
L 488 750 
Q 750 597 1062 519 
Q 1375 441 1716 441 
Q 2309 441 2620 675 
Q 2931 909 2931 1356 
Q 2931 1769 2642 2001 
Q 2353 2234 1838 2234 
L 1294 2234 
L 1294 2753 
L 1863 2753 
Q 2328 2753 2575 2939 
Q 2822 3125 2822 3475 
Q 2822 3834 2567 4026 
Q 2313 4219 1838 4219 
Q 1578 4219 1281 4162 
Q 984 4106 628 3988 
L 628 4550 
Q 988 4650 1302 4700 
Q 1616 4750 1894 4750 
Q 2613 4750 3031 4423 
Q 3450 4097 3450 3541 
Q 3450 3153 3228 2886 
Q 3006 2619 2597 2516 
z
" transform="scale(0.015625)"/>
       </defs>
       <use xlink:href="#DejaVuSans-2212"/>
       <use xlink:href="#DejaVuSans-33" x="83.789062"/>
      </g>
     </g>
    </g>
    <g id="xtick_2">
     <g id="line2d_2">
      <g>
       <use xlink:href="#mdc6a8eb181" x="107.612642" y="224.64" style="stroke: #000000; stroke-width: 0.8"/>
      </g>
     </g>
     <g id="text_2">
      <!-- −2 -->
      <g transform="translate(100.241548 239.238437)scale(0.1 -0.1)">
       <defs>
        <path id="DejaVuSans-32" d="M 1228 531 
L 3431 531 
L 3431 0 
L 469 0 
L 469 531 
Q 828 903 1448 1529 
Q 2069 2156 2228 2338 
Q 2531 2678 2651 2914 
Q 2772 3150 2772 3378 
Q 2772 3750 2511 3984 
Q 2250 4219 1831 4219 
Q 1534 4219 1204 4116 
Q 875 4013 500 3803 
L 500 4441 
Q 881 4594 1212 4672 
Q 1544 4750 1819 4750 
Q 2544 4750 2975 4387 
Q 3406 4025 3406 3419 
Q 3406 3131 3298 2873 
Q 3191 2616 2906 2266 
Q 2828 2175 2409 1742 
Q 1991 1309 1228 531 
z
" transform="scale(0.015625)"/>
       </defs>
       <use xlink:href="#DejaVuSans-2212"/>
       <use xlink:href="#DejaVuSans-32" x="83.789062"/>
      </g>
     </g>
    </g>
    <g id="xtick_3">
     <g id="line2d_3">
      <g>
       <use xlink:href="#mdc6a8eb181" x="158.339915" y="224.64" style="stroke: #000000; stroke-width: 0.8"/>
      </g>
     </g>
     <g id="text_3">
      <!-- −1 -->
      <g transform="translate(150.968821 239.238437)scale(0.1 -0.1)">
       <defs>
        <path id="DejaVuSans-31" d="M 794 531 
L 1825 531 
L 1825 4091 
L 703 3866 
L 703 4441 
L 1819 4666 
L 2450 4666 
L 2450 531 
L 3481 531 
L 3481 0 
L 794 0 
L 794 531 
z
" transform="scale(0.015625)"/>
       </defs>
       <use xlink:href="#DejaVuSans-2212"/>
       <use xlink:href="#DejaVuSans-31" x="83.789062"/>
      </g>
     </g>
    </g>
    <g id="xtick_4">
     <g id="line2d_4">
      <g>
       <use xlink:href="#mdc6a8eb181" x="209.067188" y="224.64" style="stroke: #000000; stroke-width: 0.8"/>
      </g>
     </g>
     <g id="text_4">
      <!-- 0 -->
      <g transform="translate(205.885938 239.238437)scale(0.1 -0.1)">
       <defs>
        <path id="DejaVuSans-30" d="M 2034 4250 
Q 1547 4250 1301 3770 
Q 1056 3291 1056 2328 
Q 1056 1369 1301 889 
Q 1547 409 2034 409 
Q 2525 409 2770 889 
Q 3016 1369 3016 2328 
Q 3016 3291 2770 3770 
Q 2525 4250 2034 4250 
z
M 2034 4750 
Q 2819 4750 3233 4129 
Q 3647 3509 3647 2328 
Q 3647 1150 3233 529 
Q 2819 -91 2034 -91 
Q 1250 -91 836 529 
Q 422 1150 422 2328 
Q 422 3509 836 4129 
Q 1250 4750 2034 4750 
z
" transform="scale(0.015625)"/>
       </defs>
       <use xlink:href="#DejaVuSans-30"/>
      </g>
     </g>
    </g>
    <g id="xtick_5">
     <g id="line2d_5">
      <g>
       <use xlink:href="#mdc6a8eb181" x="259.79446" y="224.64" style="stroke: #000000; stroke-width: 0.8"/>
      </g>
     </g>
     <g id="text_5">
      <!-- 1 -->
      <g transform="translate(256.61321 239.238437)scale(0.1 -0.1)">
       <use xlink:href="#DejaVuSans-31"/>
      </g>
     </g>
    </g>
    <g id="xtick_6">
     <g id="line2d_6">
      <g>
       <use xlink:href="#mdc6a8eb181" x="310.521733" y="224.64" style="stroke: #000000; stroke-width: 0.8"/>
      </g>
     </g>
     <g id="text_6">
      <!-- 2 -->
      <g transform="translate(307.340483 239.238437)scale(0.1 -0.1)">
       <use xlink:href="#DejaVuSans-32"/>
      </g>
     </g>
    </g>
    <g id="xtick_7">
     <g id="line2d_7">
      <g>
       <use xlink:href="#mdc6a8eb181" x="361.249006" y="224.64" style="stroke: #000000; stroke-width: 0.8"/>
      </g>
     </g>
     <g id="text_7">
      <!-- 3 -->
      <g transform="translate(358.067756 239.238437)scale(0.1 -0.1)">
       <use xlink:href="#DejaVuSans-33"/>
      </g>
     </g>
    </g>
   </g>
   <g id="matplotlib.axis_2">
    <g id="ytick_1">
     <g id="line2d_8">
      <defs>
       <path id="m08e52cb739" d="M 0 0 
L -3.5 0 
" style="stroke: #000000; stroke-width: 0.8"/>
      </defs>
      <g>
       <use xlink:href="#m08e52cb739" x="41.667188" y="180.836149" style="stroke: #000000; stroke-width: 0.8"/>
      </g>
     </g>
     <g id="text_8">
      <!-- −200 -->
      <g transform="translate(7.2 184.635368)scale(0.1 -0.1)">
       <use xlink:href="#DejaVuSans-2212"/>
       <use xlink:href="#DejaVuSans-32" x="83.789062"/>
       <use xlink:href="#DejaVuSans-30" x="147.412109"/>
       <use xlink:href="#DejaVuSans-30" x="211.035156"/>
      </g>
     </g>
    </g>
    <g id="ytick_2">
     <g id="line2d_9">
      <g>
       <use xlink:href="#m08e52cb739" x="41.667188" y="132.853378" style="stroke: #000000; stroke-width: 0.8"/>
      </g>
     </g>
     <g id="text_9">
      <!-- 0 -->
      <g transform="translate(28.304688 136.652597)scale(0.1 -0.1)">
       <use xlink:href="#DejaVuSans-30"/>
      </g>
     </g>
    </g>
    <g id="ytick_3">
     <g id="line2d_10">
      <g>
       <use xlink:href="#m08e52cb739" x="41.667188" y="84.870608" style="stroke: #000000; stroke-width: 0.8"/>
      </g>
     </g>
     <g id="text_10">
      <!-- 200 -->
      <g transform="translate(15.579688 88.669826)scale(0.1 -0.1)">
       <use xlink:href="#DejaVuSans-32"/>
       <use xlink:href="#DejaVuSans-30" x="63.623047"/>
       <use xlink:href="#DejaVuSans-30" x="127.246094"/>
      </g>
     </g>
    </g>
    <g id="ytick_4">
     <g id="line2d_11">
      <g>
       <use xlink:href="#m08e52cb739" x="41.667188" y="36.887837" style="stroke: #000000; stroke-width: 0.8"/>
      </g>
     </g>
     <g id="text_11">
      <!-- 400 -->
      <g transform="translate(15.579688 40.687056)scale(0.1 -0.1)">
       <defs>
        <path id="DejaVuSans-34" d="M 2419 4116 
L 825 1625 
L 2419 1625 
L 2419 4116 
z
M 2253 4666 
L 3047 4666 
L 3047 1625 
L 3713 1625 
L 3713 1100 
L 3047 1100 
L 3047 0 
L 2419 0 
L 2419 1100 
L 313 1100 
L 313 1709 
L 2253 4666 
z
" transform="scale(0.015625)"/>
       </defs>
       <use xlink:href="#DejaVuSans-34"/>
       <use xlink:href="#DejaVuSans-30" x="63.623047"/>
       <use xlink:href="#DejaVuSans-30" x="127.246094"/>
      </g>
     </g>
    </g>
   </g>
   <g id="line2d_12">
    <path d="M 56.885369 121.909642 
L 63.096872 122.30608 
L 69.308375 122.931748 
L 75.519878 123.778183 
L 81.73138 124.838935 
L 87.942883 126.101452 
L 94.154386 127.554892 
L 100.365889 129.185808 
L 106.577392 130.981346 
L 112.788894 132.928259 
L 119.000397 135.013082 
L 125.2119 137.223662 
L 131.423403 139.549102 
L 137.634905 141.978531 
L 143.846408 144.502395 
L 150.057911 147.112124 
L 156.269414 149.799981 
L 162.480917 152.560025 
L 168.692419 155.383559 
L 174.903922 158.266325 
L 181.115425 161.20188 
L 187.326928 164.183024 
L 193.538431 167.202755 
L 199.749933 170.253671 
L 205.961436 173.325929 
L 212.172939 176.409985 
L 218.384442 179.494001 
L 224.595944 182.56369 
L 230.807447 185.605871 
L 237.01895 188.604494 
L 243.230453 191.539771 
L 249.441956 194.394723 
L 255.653458 197.147631 
L 261.864961 199.778295 
L 268.076464 202.265047 
L 274.287967 204.58625 
L 280.49947 206.719441 
L 286.710972 208.643491 
L 292.922475 210.337794 
L 299.133978 211.78299 
L 305.345481 212.962237 
L 311.556983 213.858681 
L 317.768486 214.460338 
L 323.979989 214.756364 
L 330.191492 214.740874 
L 336.402995 214.407848 
L 342.614497 213.759847 
L 348.826 212.798894 
L 355.037503 211.53255 
L 361.249006 209.974171 
" clip-path="url(#pe79869312d)" style="fill: none; stroke: #000000; stroke-width: 1.5; stroke-linecap: square"/>
   </g>
   <g id="line2d_13">
    <path d="M 56.885369 46.081587 
L 63.096872 41.772124 
L 69.308375 37.708657 
L 75.519878 33.926594 
L 81.73138 30.458025 
L 87.942883 27.333952 
L 94.154386 24.582151 
L 100.365889 22.228118 
L 106.577392 20.293774 
L 112.788894 18.798119 
L 119.000397 17.757486 
L 125.2119 17.182719 
L 131.423403 17.083636 
L 137.634905 17.464744 
L 143.846408 18.326651 
L 150.057911 19.667775 
L 156.269414 21.480741 
L 162.480917 23.754904 
L 168.692419 26.47601 
L 174.903922 29.627064 
L 181.115425 33.184885 
L 187.326928 37.125067 
L 193.538431 41.41822 
L 199.749933 46.033636 
L 205.961436 50.935611 
L 212.172939 56.08824 
L 218.384442 61.450619 
L 224.595944 66.983537 
L 230.807447 72.64572 
L 237.01895 78.394064 
L 243.230453 84.18711 
L 249.441956 89.982904 
L 255.653458 95.741348 
L 261.864961 101.424522 
L 268.076464 106.994655 
L 274.287967 112.419872 
L 280.49947 117.668267 
L 286.710972 122.714659 
L 292.922475 127.534015 
L 299.133978 132.106497 
L 305.345481 136.41734 
L 311.556983 140.453585 
L 317.768486 144.206776 
L 323.979989 147.671662 
L 330.191492 150.846079 
L 336.402995 153.729563 
L 342.614497 156.325533 
L 348.826 158.638187 
L 355.037503 160.672542 
L 361.249006 162.435695 
" clip-path="url(#pe79869312d)" style="fill: none; stroke: #000000; stroke-width: 1.5; stroke-linecap: square"/>
   </g>
   <g id="line2d_14">
    <path d="M 56.885369 141.440017 
L 63.096872 144.83962 
L 69.308375 148.181112 
L 75.519878 151.449973 
L 81.73138 154.628921 
L 87.942883 157.703081 
L 94.154386 160.657983 
L 100.365889 163.47955 
L 106.577392 166.154419 
L 112.788894 168.667832 
L 119.000397 171.010534 
L 125.2119 173.169201 
L 131.423403 175.132713 
L 137.634905 176.89276 
L 143.846408 178.440279 
L 150.057911 179.768016 
L 156.269414 180.869161 
L 162.480917 181.7404 
L 168.692419 182.37712 
L 174.903922 182.780213 
L 181.115425 182.948549 
L 187.326928 182.884455 
L 193.538431 182.592365 
L 199.749933 182.078655 
L 205.961436 181.349897 
L 212.172939 180.41626 
L 218.384442 179.289013 
L 224.595944 177.980379 
L 230.807447 176.503536 
L 237.01895 174.87545 
L 243.230453 173.109704 
L 249.441956 171.224863 
L 255.653458 169.237327 
L 261.864961 167.165056 
L 268.076464 165.024159 
L 274.287967 162.832822 
L 280.49947 160.605835 
L 286.710972 158.36047 
L 292.922475 156.109416 
L 299.133978 153.867339 
L 305.345481 151.644459 
L 311.556983 149.451838 
L 317.768486 147.297983 
L 323.979989 145.18964 
L 330.191492 143.13188 
L 336.402995 141.128989 
L 342.614497 139.181743 
L 348.826 137.292032 
L 355.037503 135.45869 
L 361.249006 133.679498 
" clip-path="url(#pe79869312d)" style="fill: none; stroke: #000000; stroke-width: 1.5; stroke-linecap: square"/>
   </g>
   <g id="line2d_15">
    <path d="M 56.885369 124.052696 
L 63.096872 122.548551 
L 69.308375 121.012969 
L 75.519878 119.465332 
L 81.73138 117.926843 
L 87.942883 116.420436 
L 94.154386 114.971866 
L 100.365889 113.609326 
L 106.577392 112.359557 
L 112.788894 111.248938 
L 119.000397 110.306002 
L 125.2119 109.554643 
L 131.423403 109.017939 
L 137.634905 108.715723 
L 143.846408 108.664223 
L 150.057911 108.876548 
L 156.269414 109.360307 
L 162.480917 110.120827 
L 168.692419 111.155427 
L 174.903922 112.459204 
L 181.115425 114.022887 
L 187.326928 115.831348 
L 193.538431 117.866244 
L 199.749933 120.107248 
L 205.961436 122.527825 
L 212.172939 125.101499 
L 218.384442 127.799562 
L 224.595944 130.591005 
L 230.807447 133.445864 
L 237.01895 136.332104 
L 243.230453 139.220262 
L 249.441956 142.081367 
L 255.653458 144.887643 
L 261.864961 147.614881 
L 268.076464 150.239774 
L 274.287967 152.744018 
L 280.49947 155.110662 
L 286.710972 157.326831 
L 292.922475 159.383506 
L 299.133978 161.275032 
L 305.345481 162.999288 
L 311.556983 164.55728 
L 317.768486 165.953948 
L 323.979989 167.196857 
L 330.191492 168.298274 
L 336.402995 169.270594 
L 342.614497 170.128588 
L 348.826 170.892043 
L 355.037503 171.578237 
L 361.249006 172.208953 
" clip-path="url(#pe79869312d)" style="fill: none; stroke: #000000; stroke-width: 1.5; stroke-linecap: square"/>
   </g>
   <g id="line2d_16">
    <path d="M 56.885369 194.695614 
L 63.096872 193.429986 
L 69.308375 191.94043 
L 75.519878 190.22619 
L 81.73138 188.292357 
L 87.942883 186.141969 
L 94.154386 183.780965 
L 100.365889 181.216662 
L 106.577392 178.459738 
L 112.788894 175.521416 
L 119.000397 172.415123 
L 125.2119 169.158477 
L 131.423403 165.768491 
L 137.634905 162.26736 
L 143.846408 158.677045 
L 150.057911 155.022499 
L 156.269414 151.329679 
L 162.480917 147.625957 
L 168.692419 143.94059 
L 174.903922 140.301899 
L 181.115425 136.738826 
L 187.326928 133.278101 
L 193.538431 129.948037 
L 199.749933 126.772215 
L 205.961436 123.77598 
L 212.172939 120.977745 
L 218.384442 118.397441 
L 224.595944 116.048396 
L 230.807447 113.942858 
L 237.01895 112.087804 
L 243.230453 110.489218 
L 249.441956 109.148428 
L 255.653458 108.063331 
L 261.864961 107.230086 
L 268.076464 106.641182 
L 274.287967 106.288684 
L 280.49947 106.160473 
L 286.710972 106.245373 
L 292.922475 106.529872 
L 299.133978 107.00129 
L 305.345481 107.644413 
L 311.556983 108.446758 
L 317.768486 109.395282 
L 323.979989 110.477116 
L 330.191492 111.679854 
L 336.402995 112.993202 
L 342.614497 114.406734 
L 348.826 115.911546 
L 355.037503 117.498207 
L 361.249006 119.15805 
" clip-path="url(#pe79869312d)" style="fill: none; stroke: #000000; stroke-width: 1.5; stroke-linecap: square"/>
   </g>
   <g id="line2d_17">
    <path d="M 56.885369 146.959114 
L 63.096872 143.908193 
L 69.308375 140.896653 
L 75.519878 137.930638 
L 81.73138 135.015181 
L 87.942883 132.158879 
L 94.154386 129.369128 
L 100.365889 126.655953 
L 106.577392 124.028658 
L 112.788894 121.499839 
L 119.000397 119.080755 
L 125.2119 116.785581 
L 131.423403 114.627287 
L 137.634905 112.620528 
L 143.846408 110.78035 
L 150.057911 109.119272 
L 156.269414 107.651399 
L 162.480917 106.389902 
L 168.692419 105.345674 
L 174.903922 104.528136 
L 181.115425 103.944508 
L 187.326928 103.600952 
L 193.538431 103.498939 
L 199.749933 103.639615 
L 205.961436 104.019139 
L 212.172939 104.632257 
L 218.384442 105.47039 
L 224.595944 106.522016 
L 230.807447 107.771944 
L 237.01895 109.205328 
L 243.230453 110.802235 
L 249.441956 112.54388 
L 255.653458 114.407998 
L 261.864961 116.371546 
L 268.076464 118.411524 
L 274.287967 120.505 
L 280.49947 122.629459 
L 286.710972 124.760938 
L 292.922475 126.878673 
L 299.133978 128.961052 
L 305.345481 130.988961 
L 311.556983 132.944098 
L 317.768486 134.809962 
L 323.979989 136.57024 
L 330.191492 138.211949 
L 336.402995 139.721989 
L 342.614497 141.089181 
L 348.826 142.303066 
L 355.037503 143.356346 
L 361.249006 144.239758 
" clip-path="url(#pe79869312d)" style="fill: none; stroke: #000000; stroke-width: 1.5; stroke-linecap: square"/>
   </g>
   <g id="line2d_18">
    <path d="M 56.885369 201.364046 
L 63.096872 201.504353 
L 69.308375 201.281382 
L 75.519878 200.703621 
L 81.73138 199.786127 
L 87.942883 198.547862 
L 94.154386 197.008426 
L 100.365889 195.190504 
L 106.577392 193.121024 
L 112.788894 190.827548 
L 119.000397 188.338641 
L 125.2119 185.684315 
L 131.423403 182.897051 
L 137.634905 180.00607 
L 143.846408 177.043888 
L 150.057911 174.041832 
L 156.269414 171.030082 
L 162.480917 168.03803 
L 168.692419 165.093895 
L 174.903922 162.224222 
L 181.115425 159.454601 
L 187.326928 156.808408 
L 193.538431 154.304174 
L 199.749933 151.962053 
L 205.961436 149.796128 
L 212.172939 147.819817 
L 218.384442 146.042662 
L 224.595944 144.470302 
L 230.807447 143.105977 
L 237.01895 141.951115 
L 243.230453 141.001797 
L 249.441956 140.253296 
L 255.653458 139.696254 
L 261.864961 139.319648 
L 268.076464 139.110177 
L 274.287967 139.051914 
L 280.49947 139.126839 
L 286.710972 139.317887 
L 292.922475 139.603941 
L 299.133978 139.96504 
L 305.345481 140.381044 
L 311.556983 140.830645 
L 317.768486 141.295225 
L 323.979989 141.755346 
L 330.191492 142.193113 
L 336.402995 142.592986 
L 342.614497 142.940174 
L 348.826 143.222513 
L 355.037503 143.42952 
L 361.249006 143.553097 
" clip-path="url(#pe79869312d)" style="fill: none; stroke: #000000; stroke-width: 1.5; stroke-linecap: square"/>
   </g>
   <g id="line2d_19">
    <path d="M 56.885369 134.997458 
L 63.096872 137.490795 
L 69.308375 139.944769 
L 75.519878 142.346095 
L 81.73138 144.678371 
L 87.942883 146.930045 
L 94.154386 149.089034 
L 100.365889 151.144616 
L 106.577392 153.088 
L 112.788894 154.911436 
L 119.000397 156.607779 
L 125.2119 158.171292 
L 131.423403 159.598325 
L 137.634905 160.884211 
L 143.846408 162.026998 
L 150.057911 163.023667 
L 156.269414 163.872144 
L 162.480917 164.571845 
L 168.692419 165.122429 
L 174.903922 165.523471 
L 181.115425 165.772855 
L 187.326928 165.871549 
L 193.538431 165.820659 
L 199.749933 165.619647 
L 205.961436 165.269213 
L 212.172939 164.771203 
L 218.384442 164.126578 
L 224.595944 163.33933 
L 230.807447 162.411154 
L 237.01895 161.346519 
L 243.230453 160.150419 
L 249.441956 158.830128 
L 255.653458 157.391721 
L 261.864961 155.843889 
L 268.076464 154.196176 
L 274.287967 152.46028 
L 280.49947 150.648692 
L 286.710972 148.77482 
L 292.922475 146.853837 
L 299.133978 144.90113 
L 305.345481 142.933939 
L 311.556983 140.970772 
L 317.768486 139.030127 
L 323.979989 137.131145 
L 330.191492 135.293862 
L 336.402995 133.537936 
L 342.614497 131.881989 
L 348.826 130.346558 
L 355.037503 128.948938 
L 361.249006 127.706316 
" clip-path="url(#pe79869312d)" style="fill: none; stroke: #000000; stroke-width: 1.5; stroke-linecap: square"/>
   </g>
   <g id="line2d_20">
    <path d="M 56.885369 127.838608 
L 63.096872 128.17243 
L 69.308375 128.680416 
L 75.519878 129.358098 
L 81.73138 130.202289 
L 87.942883 131.206994 
L 94.154386 132.363926 
L 100.365889 133.66369 
L 106.577392 135.094186 
L 112.788894 136.642531 
L 119.000397 138.292642 
L 125.2119 140.027494 
L 131.423403 141.829698 
L 137.634905 143.677093 
L 143.846408 145.550847 
L 150.057911 147.427756 
L 156.269414 149.285355 
L 162.480917 151.101478 
L 168.692419 152.853117 
L 174.903922 154.519398 
L 181.115425 156.076814 
L 187.326928 157.507469 
L 193.538431 158.792845 
L 199.749933 159.916194 
L 205.961436 160.864714 
L 212.172939 161.626996 
L 218.384442 162.19462 
L 224.595944 162.563528 
L 230.807447 162.732044 
L 237.01895 162.702582 
L 243.230453 162.481814 
L 249.441956 162.07732 
L 255.653458 161.50472 
L 261.864961 160.779669 
L 268.076464 159.921366 
L 274.287967 158.953243 
L 280.49947 157.899994 
L 286.710972 156.788677 
L 292.922475 155.647065 
L 299.133978 154.506716 
L 305.345481 153.394505 
L 311.556983 152.34078 
L 317.768486 151.373628 
L 323.979989 150.518434 
L 330.191492 149.798989 
L 336.402995 149.236287 
L 342.614497 148.846041 
L 348.826 148.641164 
L 355.037503 148.630454 
L 361.249006 148.81477 
" clip-path="url(#pe79869312d)" style="fill: none; stroke: #000000; stroke-width: 1.5; stroke-linecap: square"/>
   </g>
   <g id="line2d_21">
    <path d="M 56.885369 113.894322 
L 63.096872 113.032253 
L 69.308375 112.195034 
L 75.519878 111.403036 
L 81.73138 110.676454 
L 87.942883 110.030669 
L 94.154386 109.480271 
L 100.365889 109.038111 
L 106.577392 108.712534 
L 112.788894 108.509827 
L 119.000397 108.434806 
L 125.2119 108.487742 
L 131.423403 108.669475 
L 137.634905 108.977103 
L 143.846408 109.40717 
L 150.057911 109.953237 
L 156.269414 110.610077 
L 162.480917 111.37051 
L 168.692419 112.22672 
L 174.903922 113.171321 
L 181.115425 114.195586 
L 187.326928 115.291402 
L 193.538431 116.452194 
L 199.749933 117.670371 
L 205.961436 118.937739 
L 212.172939 120.246719 
L 218.384442 121.589623 
L 224.595944 122.960157 
L 230.807447 124.349653 
L 237.01895 125.751692 
L 243.230453 127.155395 
L 249.441956 128.553312 
L 255.653458 129.936574 
L 261.864961 131.294042 
L 268.076464 132.615747 
L 274.287967 133.891274 
L 280.49947 135.109041 
L 286.710972 136.256626 
L 292.922475 137.32498 
L 299.133978 138.301251 
L 305.345481 139.175515 
L 311.556983 139.938958 
L 317.768486 140.580614 
L 323.979989 141.096685 
L 330.191492 141.479045 
L 336.402995 141.724601 
L 342.614497 141.830991 
L 348.826 141.798309 
L 355.037503 141.629509 
L 361.249006 141.327293 
" clip-path="url(#pe79869312d)" style="fill: none; stroke: #000000; stroke-width: 1.5; stroke-linecap: square"/>
   </g>
   <g id="line2d_22">
    <path d="M 56.885369 132.521931 
L 63.096872 132.515772 
L 69.308375 132.513367 
L 75.519878 132.51229 
L 81.73138 132.514234 
L 87.942883 132.518977 
L 94.154386 132.526956 
L 100.365889 132.536985 
L 106.577392 132.549031 
L 112.788894 132.563116 
L 119.000397 132.578268 
L 125.2119 132.594759 
L 131.423403 132.611953 
L 137.634905 132.629825 
L 143.846408 132.646853 
L 150.057911 132.663863 
L 156.269414 132.679213 
L 162.480917 132.694532 
L 168.692419 132.70823 
L 174.903922 132.719772 
L 181.115425 132.729486 
L 187.326928 132.736471 
L 193.538431 132.743243 
L 199.749933 132.746034 
L 205.961436 132.747344 
L 212.172939 132.746389 
L 218.384442 132.743309 
L 224.595944 132.739586 
L 230.807447 132.733112 
L 237.01895 132.725343 
L 243.230453 132.715841 
L 249.441956 132.705478 
L 255.653458 132.693812 
L 261.864961 132.681277 
L 268.076464 132.668353 
L 274.287967 132.654684 
L 280.49947 132.639168 
L 286.710972 132.625018 
L 292.922475 132.609901 
L 299.133978 132.594038 
L 305.345481 132.578605 
L 311.556983 132.563007 
L 317.768486 132.54818 
L 323.979989 132.533692 
L 330.191492 132.519828 
L 336.402995 132.50689 
L 342.614497 132.495005 
L 348.826 132.48441 
L 355.037503 132.47575 
L 361.249006 132.469295 
" clip-path="url(#pe79869312d)" style="fill: none; stroke: #1f77b4; stroke-width: 1.5; stroke-linecap: square"/>
   </g>
   <g id="patch_3">
    <path d="M 41.667188 224.64 
L 41.667188 7.2 
" style="fill: none; stroke: #000000; stroke-width: 0.8; stroke-linejoin: miter; stroke-linecap: square"/>
   </g>
   <g id="patch_4">
    <path d="M 376.467188 224.64 
L 376.467188 7.2 
" style="fill: none; stroke: #000000; stroke-width: 0.8; stroke-linejoin: miter; stroke-linecap: square"/>
   </g>
   <g id="patch_5">
    <path d="M 41.667188 224.64 
L 376.467188 224.64 
" style="fill: none; stroke: #000000; stroke-width: 0.8; stroke-linejoin: miter; stroke-linecap: square"/>
   </g>
   <g id="patch_6">
    <path d="M 41.667188 7.2 
L 376.467188 7.2 
" style="fill: none; stroke: #000000; stroke-width: 0.8; stroke-linejoin: miter; stroke-linecap: square"/>
   </g>
  </g>
 </g>
 <defs>
  <clipPath id="pe79869312d">
   <rect x="41.667188" y="7.2" width="334.8" height="217.44"/>
  </clipPath>
 </defs>
</svg>
